<svg xmlns="http://www.w3.org/2000/svg" viewBox="0 0 270.08 109.22"><defs><style>.cls-1{fill:#1d2d5a;}.cls-2{fill:#5a75b9;}</style></defs><g id="Layer_2" data-name="Layer 2"><g id="Logo-02"><path class="cls-1" d="M60.07,34.28H68.3v4.28a13.19,13.19,0,0,1,5-3.75A16.51,16.51,0,0,1,80,33.47,17.79,17.79,0,0,1,89.38,36a18.24,18.24,0,0,1,6.56,6.83,19.46,19.46,0,0,1,2.41,9.67,19.46,19.46,0,0,1-2.41,9.67A18.24,18.24,0,0,1,89.38,69,17.9,17.9,0,0,1,80,71.49a17.19,17.19,0,0,1-6.23-1.11,13.16,13.16,0,0,1-4.88-3.18V84.07H60.07ZM84.26,62.05a10,10,0,0,0,3.65-3.91,11.89,11.89,0,0,0,1.34-5.66,11.64,11.64,0,0,0-1.34-5.62,10.29,10.29,0,0,0-3.65-3.92,9.92,9.92,0,0,0-5.32-1.43,9.7,9.7,0,0,0-5.18,1.4,9.82,9.82,0,0,0-3.62,3.88,13.1,13.1,0,0,0,0,11.38,9.82,9.82,0,0,0,3.62,3.88,9.7,9.7,0,0,0,5.18,1.41A10,10,0,0,0,84.26,62.05Z"/><path class="cls-1" d="M110.21,68.94a17.67,17.67,0,0,1-6.56-6.89,20,20,0,0,1-2.34-9.64,19.54,19.54,0,0,1,2.38-9.73A17.78,17.78,0,0,1,110.18,36a17.5,17.5,0,0,1,9.2-2.48A18,18,0,0,1,129,35.92a16.32,16.32,0,0,1,6,6.46,19.1,19.1,0,0,1,2.07,8.9,18.3,18.3,0,0,1-.1,2,7.24,7.24,0,0,1-.36,1.71H110.41a9.76,9.76,0,0,0,18.14,4.15l7.09,3.48A13.92,13.92,0,0,1,129.79,69a20.21,20.21,0,0,1-19.58,0Zm3.51-26.26a9.43,9.43,0,0,0-3.11,5.59h17.13a7.92,7.92,0,0,0-2.57-5.46,8.29,8.29,0,0,0-5.79-2.11A8.57,8.57,0,0,0,113.72,42.68Z"/><path class="cls-1" d="M140.39,34.28h8.23v5.15a8.29,8.29,0,0,1,3.95-4.35,13.68,13.68,0,0,1,5.89-1.2h2.14v7.76h-3.14a8.09,8.09,0,0,0-6,2.31,8.73,8.73,0,0,0-2.31,6.46V70.68h-8.77Z"/><path class="cls-1" d="M163.49,20h8.77V48.73l13.79-14.45H197L183.5,48.93l13.72,21.75h-10L176.94,54.49l-4.68,5.08V70.68h-8.77Z"/><path class="cls-1" d="M200.18,20.83H209V30.2h-8.77Zm0,13.45H209v36.4h-8.77Z"/><path class="cls-1" d="M218.79,42.11h-6.42V34.28h6.42V33.07q0-6.22,3.75-9.63t10-3.42a16.35,16.35,0,0,1,3.41.34v7.56a14.26,14.26,0,0,0-2.28-.2A7,7,0,0,0,229.2,29a4.84,4.84,0,0,0-1.64,4.05v1.21h8.09v7.83h-8.09V70.68h-8.77Z"/><path class="cls-1" d="M260.58,34.28l-9.37,25.09-9.44-25.09h-9.43l14.38,36.4-.8,1.94a13.44,13.44,0,0,1-2.44,3.69,5.31,5.31,0,0,1-3.38,1.34v7.82a12.89,12.89,0,0,0,8.6-2.91,20.06,20.06,0,0,0,5.52-8.2l15.86-40.08Z"/></g><g id="Logo-01"><path class="cls-2" d="M39.24,22.65,0,0V14.7a7.82,7.82,0,0,0,3.9,6.76l22.6,13v30.6l-9.87,5.8V29.15L3.9,36.5A7.8,7.8,0,0,0,0,43.25V95.12a7.8,7.8,0,0,0,3.9,6.75l12.73,7.35V90L39.24,77a7.79,7.79,0,0,0,3.9-6.75V29.41A7.82,7.82,0,0,0,39.24,22.65Z"/></g></g></svg>